<svg width="29" height="26" viewBox="0 0 29 26" fill="none" xmlns="http://www.w3.org/2000/svg">
<path d="M17.0002 13.0214L27.61 2.89722C28.3005 2.23869 28.3005 1.17392 27.61 0.515387C26.9199 -0.14315 25.804 -0.14315 25.1139 0.515387L14.5037 10.6396L3.8939 0.515387C3.20343 -0.14315 2.08788 -0.14315 1.39774 0.515387C0.707265 1.17392 0.707265 2.23869 1.39774 2.89722L12.0076 13.0214L1.39774 23.1456C0.707265 23.8041 0.707265 24.8689 1.39774 25.5274C1.74168 25.8559 2.19391 26.021 2.64582 26.021C3.09773 26.021 3.54963 25.8559 3.8939 25.5274L14.5037 15.4033L25.1139 25.5274C25.4582 25.8559 25.9101 26.021 26.362 26.021C26.8139 26.021 27.2658 25.8559 27.61 25.5274C28.3005 24.8689 28.3005 23.8041 27.61 23.1456L17.0002 13.0214Z" fill="url(#paint0_linear_56_3964)"/>
<defs>
<linearGradient id="paint0_linear_56_3964" x1="46.8699" y1="-14.6032" x2="-16.7779" y2="-7.98336" gradientUnits="userSpaceOnUse">
<stop stop-color="#5DD5F4"/>
<stop offset="1" stop-color="#4268F5"/>
</linearGradient>
</defs>
</svg>
